<mxfile host="app.diagrams.net" modified="2023-10-17T13:27:49.351Z" agent="Mozilla/5.0 (X11; Linux x86_64) AppleWebKit/537.36 (KHTML, like Gecko) Chrome/118.0.0.0 Safari/537.36" etag="q7QoCBfnDEMzHPeG29N5" version="22.0.4" type="github">
  <diagram name="Page-1" id="c7488fd3-1785-93aa-aadb-54a6760d102a">
    <mxGraphModel dx="1434" dy="703" grid="1" gridSize="10" guides="1" tooltips="1" connect="1" arrows="1" fold="1" page="1" pageScale="1" pageWidth="1100" pageHeight="850" background="none" math="0" shadow="0">
      <root>
        <mxCell id="0" />
        <mxCell id="1" parent="0" />
        <mxCell id="_H-e21lkyGRxzQ_vipFk-2" value="&lt;font style=&quot;font-size: 24px;&quot;&gt;Application&lt;/font&gt;" style="rounded=1;whiteSpace=wrap;html=1;fontFamily=Verdana;" vertex="1" parent="1">
          <mxGeometry x="60" y="120" width="190" height="60" as="geometry" />
        </mxCell>
        <mxCell id="_H-e21lkyGRxzQ_vipFk-3" value="&lt;font style=&quot;font-size: 24px;&quot;&gt;Application&lt;/font&gt;" style="rounded=1;whiteSpace=wrap;html=1;fontFamily=Verdana;" vertex="1" parent="1">
          <mxGeometry x="60" y="300" width="190" height="60" as="geometry" />
        </mxCell>
        <mxCell id="_H-e21lkyGRxzQ_vipFk-8" value="" style="endArrow=classic;html=1;rounded=0;" edge="1" parent="1">
          <mxGeometry width="50" height="50" relative="1" as="geometry">
            <mxPoint x="440" y="250" as="sourcePoint" />
            <mxPoint x="260" y="330" as="targetPoint" />
          </mxGeometry>
        </mxCell>
        <object label="" id="_H-e21lkyGRxzQ_vipFk-9">
          <mxCell style="endArrow=classic;html=1;rounded=0;movable=1;resizable=1;rotatable=1;deletable=1;editable=1;locked=0;connectable=1;" edge="1" parent="1">
            <mxGeometry width="50" height="50" relative="1" as="geometry">
              <mxPoint x="260" y="160" as="sourcePoint" />
              <mxPoint x="440" y="230" as="targetPoint" />
            </mxGeometry>
          </mxCell>
        </object>
        <mxCell id="_H-e21lkyGRxzQ_vipFk-11" value="&lt;font style=&quot;font-size: 24px;&quot;&gt;Thumbor&lt;/font&gt;" style="rounded=1;whiteSpace=wrap;html=1;" vertex="1" parent="1">
          <mxGeometry x="450" y="200" width="200" height="100" as="geometry" />
        </mxCell>
        <mxCell id="_H-e21lkyGRxzQ_vipFk-13" value="" style="endArrow=classic;html=1;rounded=0;" edge="1" parent="1">
          <mxGeometry width="50" height="50" relative="1" as="geometry">
            <mxPoint x="660" y="250" as="sourcePoint" />
            <mxPoint x="870" y="250" as="targetPoint" />
          </mxGeometry>
        </mxCell>
        <mxCell id="_H-e21lkyGRxzQ_vipFk-15" value="&lt;font style=&quot;font-size: 24px;&quot;&gt;GCS&lt;br&gt;&lt;/font&gt;" style="rounded=1;whiteSpace=wrap;html=1;fontFamily=Verdana;" vertex="1" parent="1">
          <mxGeometry x="900" y="220" width="190" height="60" as="geometry" />
        </mxCell>
        <mxCell id="_H-e21lkyGRxzQ_vipFk-19" value="Import &lt;br&gt;image" style="text;strokeColor=none;align=center;fillColor=none;html=1;verticalAlign=middle;whiteSpace=wrap;rounded=0;rotation=20;direction=east;" vertex="1" parent="1">
          <mxGeometry x="211.2" y="154.92" width="259.7" height="40" as="geometry" />
        </mxCell>
        <mxCell id="_H-e21lkyGRxzQ_vipFk-26" value="Export&lt;br&gt;&amp;nbsp;image" style="text;strokeColor=none;align=center;fillColor=none;html=1;verticalAlign=middle;whiteSpace=wrap;rounded=0;rotation=330;" vertex="1" parent="1">
          <mxGeometry x="307.32" y="290" width="100" height="30" as="geometry" />
        </mxCell>
      </root>
    </mxGraphModel>
  </diagram>
</mxfile>
